<?xml version="1.0" standalone="no"?>
<!DOCTYPE svg PUBLIC "-//W3C//DTD SVG 20010904//EN"
 "http://www.w3.org/TR/2001/REC-SVG-20010904/DTD/svg10.dtd">
<svg version="1.0" xmlns="http://www.w3.org/2000/svg"
 width="1022.000000pt" height="1022.000000pt" viewBox="0 0 1022.000000 1022.000000"
 preserveAspectRatio="xMidYMid meet">
<metadata>
Created by potrace 1.11, written by Peter Selinger 2001-2013
</metadata>
<g transform="translate(0.000000,1022.000000) scale(0.100000,-0.100000)"
fill="#000000" stroke="none">
<path d="M5595 9950 c-72 -60 -121 -123 -176 -230 -18 -36 -33 -67 -34 -70 0
-3 -17 -50 -37 -105 -40 -109 -83 -251 -91 -302 -3 -17 -8 -36 -11 -42 -3 -5
-8 -22 -10 -38 -2 -15 -9 -50 -14 -78 -6 -27 -13 -70 -17 -95 -3 -25 -8 -58
-11 -74 -31 -154 -37 -680 -9 -846 19 -113 80 -206 158 -243 57 -27 74 -30
168 -31 82 -1 89 1 135 32 48 33 124 123 161 192 41 76 153 448 168 560 2 14
8 45 14 70 5 25 12 65 16 90 3 25 8 52 10 60 3 8 7 35 10 60 3 25 7 52 10 60
2 8 7 40 10 70 2 30 7 71 10 90 8 60 18 182 19 245 1 34 5 65 8 70 3 6 2 19
-2 30 -4 11 -4 30 1 43 5 14 5 22 -2 22 -6 0 -6 7 1 20 6 11 7 20 3 20 -4 0
-8 24 -9 53 0 28 -4 70 -8 92 -4 22 -7 48 -7 58 0 9 -4 17 -10 17 -5 0 -8 3
-7 8 4 15 -41 88 -74 119 -18 17 -58 46 -88 64 -52 30 -61 32 -155 33 -92 1
-101 -1 -130 -24z"/>
<path d="M2194 9711 c-24 -37 -77 -178 -87 -232 -3 -13 -8 -35 -11 -49 -20
-81 -28 -420 -13 -540 11 -94 77 -340 98 -366 5 -6 10 -19 12 -30 6 -29 49
-119 58 -122 5 -2 9 -10 9 -18 0 -8 26 -55 58 -104 31 -50 62 -98 67 -108 25
-45 181 -247 230 -298 11 -11 37 -41 59 -65 115 -131 240 -249 265 -249 6 0
11 -4 11 -8 0 -8 92 -45 120 -48 94 -10 112 -10 154 5 54 19 99 58 125 110 15
29 18 54 16 136 -2 55 -6 114 -9 130 -9 45 -25 127 -29 150 -2 11 -7 27 -10
35 -3 8 -11 40 -17 70 -14 63 -47 170 -66 217 -8 17 -14 35 -14 40 0 12 -107
273 -125 304 -8 14 -12 29 -8 33 3 3 1 6 -5 6 -7 0 -12 6 -12 13 0 6 -15 44
-34 82 -18 39 -46 97 -61 130 -16 33 -31 62 -34 65 -3 3 -15 23 -26 45 -11 21
-30 50 -42 63 -12 13 -28 37 -35 53 -7 16 -16 29 -20 29 -5 0 -8 7 -8 15 0 8
-4 15 -10 15 -5 0 -10 6 -10 13 0 8 -9 22 -20 32 -11 10 -20 22 -20 27 0 5
-13 26 -28 46 -16 20 -61 80 -99 132 -140 188 -257 280 -359 280 -40 0 -46 -3
-70 -39z"/>
<path d="M8593 8494 c-26 -13 -54 -31 -63 -39 -9 -8 -22 -15 -28 -15 -7 0 -12
-4 -12 -9 0 -6 -11 -16 -24 -23 -34 -19 -169 -111 -181 -124 -5 -5 -30 -23
-55 -39 -25 -16 -52 -35 -60 -42 -8 -8 -31 -24 -50 -36 -48 -31 -282 -195
-297 -207 -7 -5 -16 -10 -20 -10 -10 0 -33 -20 -159 -136 -195 -178 -354 -346
-354 -373 0 -6 -4 -11 -8 -11 -19 0 -45 -86 -47 -158 -3 -96 19 -153 87 -221
52 -52 134 -100 184 -105 16 -2 29 -5 29 -6 0 -1 15 -3 33 -4 17 -1 32 2 32 7
0 5 6 4 13 -2 8 -6 16 -9 18 -7 2 2 31 7 64 11 99 11 276 77 344 127 13 10 27
15 32 12 5 -3 9 -1 9 4 0 4 19 19 43 32 66 36 181 114 190 127 4 7 14 13 21
13 7 0 25 10 39 23 13 12 40 33 58 47 72 54 281 257 484 471 167 175 185 207
180 324 -3 55 -22 145 -34 155 -3 3 -13 18 -21 33 -23 45 -119 146 -154 161
-48 23 -105 35 -179 39 -56 3 -75 0 -114 -19z"/>
<path d="M359 8026 c-2 -2 -21 -6 -42 -9 -20 -3 -44 -10 -52 -17 -8 -7 -15
-10 -15 -6 0 3 -9 -3 -19 -13 -51 -51 -49 -177 4 -296 10 -22 19 -42 19 -45 1
-3 24 -41 51 -84 28 -43 55 -86 61 -97 6 -11 23 -33 38 -49 14 -16 26 -34 26
-39 0 -5 4 -11 8 -13 5 -1 39 -39 78 -83 94 -110 228 -238 322 -310 7 -5 24
-20 37 -32 13 -13 27 -23 30 -23 4 0 12 -6 19 -12 7 -7 25 -22 40 -33 16 -11
50 -37 76 -57 26 -21 52 -38 58 -38 6 0 12 -4 14 -8 7 -20 288 -198 411 -262
72 -37 134 -68 137 -68 5 0 40 -14 97 -38 49 -22 166 -56 243 -71 53 -10 187
-9 232 3 92 24 162 87 194 176 16 44 21 159 10 213 -6 29 -64 154 -75 165 -3
3 -22 28 -40 55 -19 28 -37 52 -41 55 -3 3 -30 34 -60 70 -64 76 -115 127
-155 155 -15 11 -42 30 -58 43 -17 12 -37 22 -44 22 -7 0 -13 4 -13 8 0 10
-77 62 -91 62 -5 0 -9 4 -9 9 0 5 -13 14 -30 21 -16 7 -30 16 -30 21 0 5 -6 9
-13 9 -8 0 -22 9 -32 20 -10 11 -22 20 -27 20 -5 0 -28 13 -51 29 -152 103
-622 351 -667 351 -5 0 -10 5 -10 11 0 5 -4 8 -8 5 -4 -2 -21 1 -37 9 -56 25
-240 93 -300 111 -67 20 -70 21 -103 28 -13 3 -31 7 -40 10 -9 3 -42 8 -72 11
-30 4 -58 9 -61 11 -3 2 -8 2 -10 0z"/>
<path d="M4267 7834 c-1 -1 -25 -5 -53 -8 -28 -3 -62 -9 -75 -15 -31 -12 -59
-21 -62 -19 -3 2 -229 -114 -242 -124 -5 -4 -75 -51 -155 -104 -158 -106 -213
-145 -218 -156 -2 -5 -8 -8 -13 -8 -26 0 -439 -392 -563 -534 -28 -33 -58 -67
-66 -75 -8 -9 -37 -45 -63 -81 -26 -36 -55 -73 -63 -83 -8 -9 -14 -22 -14 -27
0 -6 -5 -10 -11 -10 -5 0 -8 -4 -4 -9 3 -6 -3 -14 -12 -20 -10 -6 -14 -11 -9
-11 5 0 2 -8 -6 -17 -9 -10 -44 -74 -79 -143 -35 -69 -68 -128 -74 -132 -6 -5
-6 -8 -1 -8 6 0 5 -5 -2 -12 -7 -7 -12 -20 -12 -30 0 -10 -4 -18 -10 -18 -5 0
-10 -4 -10 -9 0 -5 -5 -22 -12 -38 -6 -15 -12 -32 -13 -38 -2 -5 -13 -35 -25
-65 -24 -60 -79 -238 -86 -279 -3 -14 -10 -44 -16 -66 -14 -53 -18 -74 -23
-110 -6 -44 -17 -107 -22 -130 -4 -19 -8 -51 -18 -150 -16 -150 -23 -375 -13
-397 4 -9 4 -19 -1 -23 -9 -5 -7 -42 4 -72 2 -7 0 -13 -6 -13 -6 0 -7 -5 -3
-12 4 -6 9 -32 11 -57 5 -79 11 -145 17 -171 3 -14 7 -45 10 -70 3 -25 10 -60
15 -77 5 -18 7 -33 4 -33 -3 0 -1 -6 4 -12 5 -7 10 -26 12 -43 2 -16 7 -32 12
-33 5 -2 7 -8 4 -12 -5 -9 34 -147 57 -200 6 -14 14 -34 19 -45 29 -74 144
-301 160 -315 3 -3 16 -23 29 -45 80 -134 285 -363 446 -498 101 -85 103 -87
113 -87 5 0 11 -4 13 -8 8 -19 206 -137 313 -186 33 -15 68 -31 77 -36 10 -6
25 -10 33 -10 8 0 15 -4 15 -8 0 -5 6 -9 13 -10 6 0 53 -15 102 -32 122 -42
298 -86 385 -97 61 -7 593 -12 604 -5 5 3 30 7 55 8 93 5 191 18 296 39 39 8
86 17 105 20 38 6 165 33 190 40 8 2 42 11 75 19 33 8 79 22 103 30 23 8 44
15 47 16 3 0 6 0 8 1 1 0 9 2 17 4 33 7 177 58 245 86 17 7 35 13 42 15 23 4
353 155 383 174 8 5 29 16 45 23 17 8 65 35 108 61 43 25 82 46 87 46 5 0 10
3 12 8 2 4 32 25 68 46 36 22 67 43 68 48 2 4 8 8 13 8 6 0 36 19 67 43 55 41
64 48 96 74 8 7 19 13 25 13 5 0 11 3 13 8 2 4 28 27 58 52 127 104 240 218
337 341 81 103 103 133 123 168 8 14 18 28 22 31 12 9 89 164 119 237 44 110
89 252 94 293 1 8 5 33 10 55 10 50 12 62 21 160 10 106 10 718 1 820 -13 131
-23 208 -32 255 -10 47 -19 105 -19 128 -1 12 -4 22 -7 22 -4 0 -10 17 -13 38
-12 70 -29 121 -68 195 -5 10 -19 37 -31 60 -11 23 -36 63 -54 90 -18 26 -31
47 -27 47 3 0 -2 7 -11 16 -9 9 -24 29 -33 43 -27 42 -61 79 -162 181 -98 98
-161 150 -179 150 -6 0 -11 4 -11 8 0 5 -12 15 -27 23 -16 8 -30 16 -33 19
-11 11 -297 162 -302 160 -4 -2 -35 8 -78 25 -42 16 -127 40 -195 55 -27 6
-61 13 -75 16 -110 25 -177 31 -323 28 -149 -2 -250 -9 -287 -19 -8 -2 -33 -6
-54 -10 -22 -3 -64 -13 -94 -21 -30 -9 -60 -17 -66 -19 -6 -1 -24 -7 -39 -13
-16 -7 -32 -12 -36 -12 -5 0 -26 -8 -47 -17 -22 -9 -42 -16 -46 -15 -5 1 -8
-3 -8 -8 0 -5 -3 -9 -7 -8 -9 1 -54 -16 -93 -36 -99 -51 -164 -87 -189 -105
-16 -12 -34 -21 -39 -21 -6 0 -12 -3 -14 -7 -1 -5 -37 -30 -78 -58 -41 -27
-77 -52 -80 -55 -3 -3 -36 -28 -75 -55 -65 -46 -312 -285 -415 -401 -25 -28
-60 -68 -77 -88 -18 -20 -33 -39 -33 -43 0 -3 -10 -14 -22 -24 -11 -11 -17
-19 -12 -19 5 0 4 -4 -1 -8 -20 -13 -103 -147 -149 -240 -41 -80 -110 -267
-121 -327 -16 -81 -19 -111 -19 -195 0 -93 8 -200 19 -250 4 -14 8 -36 11 -50
7 -34 24 -88 41 -127 7 -17 13 -33 13 -36 0 -3 5 -18 12 -34 6 -15 12 -34 14
-41 1 -7 12 -33 23 -58 12 -25 29 -64 38 -87 29 -74 157 -322 170 -330 7 -4
13 -13 13 -19 0 -17 83 -137 127 -183 53 -57 131 -105 193 -120 8 -3 40 -11
70 -20 74 -21 176 -29 355 -29 145 0 353 10 405 19 14 2 41 6 60 9 20 3 55 12
78 20 23 8 42 13 42 9 0 -3 7 1 17 8 9 8 19 13 22 13 12 -3 149 54 171 71 8 6
33 20 55 30 39 20 195 167 227 215 10 14 32 45 49 70 46 64 161 290 175 343 1
4 3 9 4 12 1 3 3 8 4 13 1 4 4 12 7 17 4 6 10 28 14 50 5 22 10 45 11 50 23
81 38 305 20 305 -5 0 -7 3 -4 6 7 6 -17 118 -31 149 -5 11 -21 46 -35 77 -26
60 -77 141 -107 170 -9 10 -23 25 -31 35 -16 23 -111 103 -121 103 -4 0 -19 8
-34 17 -14 10 -31 18 -37 19 -6 2 -34 11 -62 22 -45 17 -94 28 -169 39 -90 12
-292 2 -370 -18 -22 -6 -41 -11 -42 -10 -6 2 -121 -64 -153 -88 -118 -87 -142
-132 -144 -269 -1 -50 1 -92 4 -92 3 0 6 -8 7 -18 1 -9 16 -58 33 -107 49
-137 56 -154 63 -161 4 -4 7 -16 7 -26 0 -10 4 -18 8 -18 5 0 9 -6 9 -12 0 -7
3 -28 7 -45 6 -26 4 -33 -7 -33 -9 0 -17 3 -19 8 -1 4 -27 25 -57 46 -108 77
-161 133 -202 214 -19 36 -34 68 -35 71 0 4 -6 20 -13 36 -26 63 -33 206 -15
298 6 31 10 57 8 57 -3 0 5 18 16 40 11 21 20 44 20 49 0 18 59 98 92 124 18
14 51 42 72 61 22 20 42 36 46 36 3 0 16 9 27 20 92 85 485 267 640 296 266
50 455 33 648 -57 55 -26 144 -77 160 -92 7 -6 32 -28 55 -47 24 -19 50 -43
59 -53 9 -10 27 -31 41 -46 77 -84 101 -123 109 -175 14 -95 5 -448 -13 -532
-2 -12 -7 -38 -10 -59 -4 -20 -8 -41 -11 -45 -2 -3 -7 -22 -10 -41 -9 -44 -16
-71 -40 -149 -1 -3 -5 -12 -8 -20 -4 -8 -13 -36 -22 -62 -19 -59 -92 -214
-116 -249 -10 -14 -16 -29 -12 -33 3 -3 1 -6 -6 -6 -7 0 -9 -4 -6 -10 3 -5 2
-10 -2 -10 -8 0 -26 -29 -39 -62 -3 -10 -10 -18 -15 -18 -5 0 -9 -7 -9 -15 0
-8 -4 -15 -8 -15 -4 0 -16 -15 -27 -32 -10 -18 -24 -38 -29 -44 -6 -6 -18 -22
-26 -34 -29 -43 -95 -125 -130 -161 -19 -20 -47 -49 -61 -65 -15 -16 -55 -54
-89 -84 -35 -30 -78 -68 -96 -85 -54 -49 -74 -65 -84 -65 -5 0 -13 -6 -17 -13
-4 -6 -27 -25 -50 -41 -24 -16 -43 -33 -43 -39 0 -6 -3 -7 -7 -4 -3 4 -16 -2
-27 -12 -31 -29 -341 -184 -391 -196 -5 -1 -23 -8 -40 -14 -33 -14 -28 -13
-140 -41 -88 -22 -100 -25 -195 -39 -130 -20 -177 -24 -285 -24 -163 0 -290
18 -475 68 -91 24 -245 88 -275 114 -11 10 -42 30 -70 46 -76 44 -325 299
-325 334 0 6 -5 11 -11 11 -5 0 -7 5 -4 10 3 6 2 10 -2 10 -5 0 -22 26 -38 58
-17 31 -32 59 -35 62 -18 18 -97 232 -105 285 -1 11 -8 39 -14 63 -7 23 -9 47
-6 52 3 6 3 10 -2 10 -9 0 -11 28 -16 185 -2 55 1 106 6 113 6 8 5 12 -2 12
-7 0 -9 5 -5 11 4 6 8 37 9 68 2 31 4 56 5 56 1 0 3 11 5 25 2 14 6 43 10 65
3 22 8 50 10 62 8 48 55 220 74 269 11 29 17 54 14 58 -4 3 -1 6 5 6 7 0 12 7
12 16 0 21 107 239 161 329 23 39 67 102 98 140 31 39 70 88 86 109 88 113
442 436 478 436 5 0 15 6 22 13 33 29 45 37 54 37 15 0 185 172 206 210 32 59
95 204 95 223 0 9 5 17 11 17 5 0 8 3 6 8 -3 4 3 48 12 97 28 142 16 275 -31
370 -57 116 -156 171 -321 178 -37 2 -69 2 -70 1z"/>
<path d="M9747 6044 c-3 -3 -45 -8 -94 -10 -48 -2 -110 -5 -138 -8 -27 -2 -88
-7 -135 -10 -47 -4 -97 -8 -110 -11 -14 -3 -50 -7 -80 -11 -61 -6 -107 -13
-130 -19 -8 -2 -40 -7 -70 -10 -30 -4 -57 -8 -60 -10 -3 -2 -26 -6 -53 -9 -26
-4 -59 -11 -72 -16 -14 -5 -29 -9 -33 -8 -10 2 -76 -12 -142 -29 -102 -27
-119 -31 -124 -25 -4 3 -6 0 -6 -7 0 -7 -4 -9 -10 -6 -5 3 -16 3 -22 -2 -7 -4
-22 -9 -33 -10 -34 -6 -255 -83 -345 -121 -146 -62 -244 -135 -274 -206 -18
-42 -13 -157 9 -203 19 -40 112 -137 160 -168 53 -34 136 -75 163 -81 55 -12
166 -25 178 -20 8 3 16 1 19 -5 4 -5 10 -7 15 -4 4 3 53 8 107 11 147 8 188
13 393 49 70 12 161 30 355 71 44 9 62 13 110 24 28 6 57 13 65 15 8 2 35 8
60 14 41 11 71 18 110 26 8 2 16 4 18 5 1 2 5 3 10 4 168 44 412 137 412 157
0 5 4 9 9 9 6 0 25 15 44 33 103 96 120 272 42 427 -27 54 -78 112 -113 130
-29 14 -51 19 -122 26 -30 3 -58 7 -61 10 -4 2 -11 0 -14 -6 -5 -8 -11 -8 -19
-1 -7 6 -16 8 -19 5z"/>
<path d="M896 5783 c-1 -1 -44 -4 -96 -7 -107 -5 -212 -20 -284 -41 -27 -8
-52 -13 -54 -10 -3 3 -10 1 -16 -4 -6 -4 -33 -14 -61 -21 -27 -7 -54 -16 -60
-20 -5 -3 -37 -17 -70 -30 -33 -13 -69 -32 -79 -42 -11 -10 -24 -18 -28 -18
-8 0 -94 -85 -128 -127 -12 -14 -16 -42 -15 -110 l1 -92 38 -33 c21 -18 55
-47 75 -64 32 -28 192 -100 242 -109 18 -4 66 -18 109 -33 8 -3 18 -5 21 -4 4
1 22 -3 40 -8 47 -14 169 -34 279 -46 82 -10 524 -10 610 -1 73 7 86 9 160 21
19 3 52 8 72 10 21 2 42 7 48 11 6 4 21 8 33 10 12 2 32 6 45 9 27 6 195 77
202 85 3 3 23 18 46 34 139 94 168 233 74 357 -32 44 -100 100 -119 100 -5 0
-11 4 -13 8 -4 10 -136 66 -198 83 -63 17 -62 17 -88 23 -13 3 -31 7 -40 10
-9 3 -32 8 -51 11 -19 3 -37 7 -40 9 -3 2 -33 7 -66 10 -33 3 -78 8 -100 11
-49 6 -244 18 -267 16 -31 -1 -41 -1 -131 2 -49 1 -89 1 -91 0z"/>
<path d="M7937 4154 c-1 -1 -26 -5 -56 -8 -30 -4 -61 -11 -68 -18 -7 -6 -13
-7 -13 -3 0 10 -69 -43 -101 -77 -14 -15 -34 -45 -44 -66 -10 -20 -23 -48 -30
-62 -8 -16 -11 -58 -9 -113 5 -135 41 -195 183 -304 16 -13 34 -23 40 -23 6 0
11 -3 11 -8 0 -4 16 -16 35 -26 19 -11 35 -23 35 -28 0 -4 5 -8 10 -8 12 0
152 -90 162 -105 4 -5 8 -7 8 -2 0 4 21 -8 48 -26 26 -18 68 -45 93 -59 25
-15 59 -40 76 -55 17 -15 53 -39 79 -53 27 -13 66 -35 86 -47 21 -13 44 -23
53 -23 8 0 15 -4 15 -9 0 -5 10 -13 23 -17 12 -4 24 -9 27 -13 3 -3 37 -22 75
-41 39 -19 72 -37 75 -40 6 -6 30 -19 110 -60 36 -19 77 -42 93 -52 15 -11 27
-16 27 -13 0 3 12 -2 28 -13 34 -25 286 -154 332 -172 122 -45 230 -35 291 29
33 36 91 138 95 171 1 8 5 26 9 40 44 176 17 262 -120 373 -46 37 -88 67 -93
67 -6 0 -12 3 -14 8 -1 4 -39 34 -83 67 -44 33 -86 66 -93 73 -7 6 -17 12 -21
12 -4 0 -16 8 -27 18 -52 46 -172 138 -200 152 -17 9 -53 35 -81 58 -27 23
-55 42 -61 42 -7 0 -12 4 -12 8 0 5 -16 17 -35 28 -19 10 -35 22 -35 26 0 5
-4 8 -9 8 -5 0 -37 18 -70 40 -33 22 -63 40 -66 40 -3 0 -15 8 -25 18 -11 10
-39 28 -62 41 -24 12 -56 31 -73 41 -108 67 -300 149 -395 169 -48 10 -216 21
-223 15z"/>
<path d="M1986 3682 c-2 -2 -21 -5 -42 -8 -22 -2 -50 -7 -64 -11 -14 -3 -27
-7 -30 -8 -64 -15 -283 -121 -405 -194 -16 -10 -46 -27 -65 -38 -116 -67 -149
-89 -187 -126 -23 -23 -48 -46 -55 -52 -90 -68 -260 -230 -357 -340 -128 -145
-175 -233 -174 -320 4 -213 203 -299 503 -220 36 10 71 18 78 18 6 0 12 4 12
8 0 4 12 10 28 14 15 3 54 19 87 34 33 16 64 29 69 29 5 0 12 4 15 9 3 5 17
14 31 20 14 7 61 33 105 58 44 25 91 51 105 58 14 6 31 17 38 24 7 7 18 13 24
13 10 0 76 49 112 85 12 11 39 34 60 50 62 47 268 254 313 315 22 30 55 82 73
115 18 33 37 65 42 72 17 21 34 106 32 158 -4 139 -38 202 -124 231 -25 8
-217 13 -224 6z"/>
<path d="M6708 2915 c-2 -2 -22 -5 -44 -7 -57 -7 -167 -60 -206 -100 -65 -65
-80 -110 -83 -242 -2 -61 3 -110 17 -160 10 -39 20 -78 22 -86 2 -8 14 -42 26
-75 12 -33 23 -64 24 -70 1 -5 15 -37 30 -70 15 -33 34 -76 41 -95 30 -82 218
-430 238 -438 4 -2 7 -8 7 -13 0 -11 48 -86 73 -113 9 -11 17 -23 17 -27 0 -4
6 -14 13 -21 7 -7 31 -38 52 -68 21 -30 41 -57 45 -60 3 -3 28 -34 55 -70 68
-92 240 -259 329 -319 12 -8 23 -18 26 -21 3 -3 23 -14 45 -25 40 -18 114 -23
182 -12 39 7 118 41 137 59 8 7 29 24 47 38 17 13 47 48 67 77 52 79 51 172
-3 290 -8 17 -15 33 -15 36 0 2 -10 26 -22 53 -12 27 -21 52 -20 57 1 4 -2 7
-8 7 -5 0 -10 7 -10 15 0 8 -4 23 -10 33 -12 22 -70 152 -70 157 0 3 -15 36
-34 74 -19 38 -31 72 -28 75 3 3 0 6 -6 6 -7 0 -12 9 -12 20 0 11 -4 20 -10
20 -5 0 -10 6 -10 13 0 6 -11 34 -25 61 -14 27 -25 55 -25 63 0 7 -5 13 -11
13 -5 0 -7 5 -4 10 3 6 1 10 -4 10 -6 0 -11 6 -11 14 0 17 -149 313 -179 355
-12 16 -21 34 -21 40 0 6 -4 11 -9 11 -5 0 -16 15 -24 33 -9 17 -30 48 -47 67
-16 19 -33 43 -36 53 -3 9 -10 17 -15 17 -5 0 -9 4 -9 8 0 10 -56 75 -120 141
-79 80 -157 131 -230 151 -40 11 -126 20 -132 15z"/>
<path d="M3522 2590 c-70 -23 -181 -99 -262 -180 -66 -65 -120 -126 -120 -134
0 -3 -13 -20 -30 -38 -16 -18 -30 -38 -30 -44 0 -7 -4 -14 -8 -16 -11 -4 -91
-119 -137 -198 -21 -36 -42 -67 -45 -70 -6 -5 -134 -259 -135 -270 -1 -3 -9
-23 -19 -45 -16 -36 -53 -139 -91 -250 -14 -41 -34 -116 -41 -148 -2 -10 -5
-26 -8 -35 -20 -68 -29 -284 -15 -371 10 -65 48 -117 105 -146 45 -22 164 -26
189 -5 8 7 15 10 15 6 0 -5 20 5 91 46 12 7 31 20 41 29 10 9 31 22 46 30 33
17 76 53 116 99 17 19 45 48 61 65 52 51 235 312 235 335 0 5 5 10 10 10 6 0
10 7 10 15 0 8 5 15 10 15 6 0 10 5 10 10 0 6 11 28 25 50 14 22 22 40 18 40
-5 0 -3 4 2 8 6 4 15 16 21 27 62 116 110 218 106 228 -1 4 3 7 10 7 6 0 8 3
5 7 -4 3 -3 11 2 17 16 20 88 218 116 319 36 132 48 268 33 378 -13 92 -64
165 -145 208 -38 20 -133 20 -191 1z"/>
<path d="M5030 2432 c-14 -9 -34 -27 -45 -39 -19 -24 -107 -183 -100 -183 2 0
-3 -16 -11 -35 -8 -19 -23 -72 -35 -118 -11 -45 -22 -91 -25 -102 -3 -11 -7
-36 -9 -55 -1 -19 -6 -42 -9 -50 -3 -8 -7 -36 -9 -63 -1 -26 -4 -47 -7 -47 -5
0 -11 -124 -14 -272 0 -49 -5 -88 -9 -88 -5 0 -5 -5 -1 -12 4 -6 6 -41 5 -77
-1 -36 -2 -70 -2 -76 1 -5 3 -82 5 -170 6 -188 12 -256 30 -330 2 -5 6 -23 10
-40 46 -184 116 -311 216 -389 32 -26 194 -30 218 -6 9 8 19 15 23 15 25 0
114 110 162 200 53 99 112 295 132 435 3 25 11 74 16 110 22 136 29 412 16
570 -12 129 -16 156 -43 280 -31 138 -46 185 -85 268 -16 35 -29 67 -29 72 0
6 -4 10 -10 10 -5 0 -10 7 -10 15 0 23 -121 138 -174 164 -61 30 -168 37 -206
13z"/>
</g>
</svg>
